<svg viewBox="0 0 845 690" fill="none" xmlns="http://www.w3.org/2000/svg">
<path fill-rule="evenodd" clip-rule="evenodd" d="M402.871 578.067C402.788 578.732 402.704 579.397 402.625 580.066C397.362 580.066 392.076 580.376 386.849 579.968C382.667 579.642 383.037 576.941 384.734 573.424C391.03 575.04 396.953 576.553 402.871 578.067ZM273.795 561.614C279.904 553.504 284.666 547.193 289.42 540.878C290.123 541.294 290.823 541.71 291.523 542.126C289.046 548.564 286.57 555.001 284.03 561.614H273.795ZM252.728 559.174C261.898 549.433 272.054 542.375 282.504 535.48C278.938 543.448 273.381 549.865 268.19 556.584C264.183 561.777 259.628 562.299 252.728 559.174ZM232.305 561.243C233.97 557.526 234.133 556.4 234.765 555.862C244.953 547.132 255.129 538.381 265.487 529.875C268.154 527.684 271.509 527.542 277.495 529.475C274.069 531.866 272.117 532.955 270.48 534.412C261.417 542.457 252.6 550.811 243.283 558.526C241.085 560.345 237.265 560.105 232.305 561.243ZM357.24 565.155C335.656 563.882 314.191 564.939 292.226 561.541C296.599 549.738 300.593 538.956 304.858 527.444C325.568 536.402 337.743 555.866 357.24 565.155ZM374.077 575.962C362.542 579.311 171.847 575.631 163.479 573.277C165.057 567.917 165.053 567.831 170.773 567.795C234.304 567.395 297.751 569.594 361.119 574.171C365.46 574.485 369.757 575.354 374.077 575.962ZM269.748 501.788C270.849 494.049 271.513 488.403 272.507 482.81C273.087 479.562 275.389 477.751 278.6 477.849C281.085 477.922 283.609 478.347 286.021 478.991C321.553 488.488 357.073 498.034 392.576 507.621C395.216 508.335 397.752 509.469 400.637 510.514C400.156 515.54 399.739 519.901 399.199 525.49C393.932 523.075 389.945 521.276 385.986 519.411C373.33 513.459 360.678 507.511 348.05 501.502C332.237 493.979 316.052 492.29 299.019 496.79C290.227 499.111 281.057 499.915 269.748 501.788ZM689.25 488.908C737.029 500.486 781.381 497.251 820.609 462.428C823.912 471.672 826.694 479.452 829.815 488.186C825.013 489.741 821.511 491.087 817.906 492.009C780.367 501.633 742.188 505.161 703.584 504.072C692.085 503.75 691.778 503.162 689.25 488.908ZM42.9964 300.564L44.4989 299.703C45.7351 301.258 47.3052 302.645 48.1598 304.403C52.4169 313.133 56.7456 321.839 60.5814 330.773C75.1573 364.723 89.4788 398.795 104.043 432.754C114.004 455.978 124.482 478.979 134.208 502.31C141.315 519.354 147.592 536.766 154.202 554.03C154.762 555.487 155.037 557.053 155.486 558.693C148.772 562.471 147.54 557.159 145.906 553.178C112.386 471.595 78.9136 389.996 45.4688 308.385C44.4393 305.863 43.8112 303.171 42.9964 300.564ZM201.308 535.313C201.118 534.616 200.927 533.914 200.736 533.212C202.851 532.078 204.874 530.695 207.088 529.838C236.22 518.522 265.797 508.984 297.091 506.369C299.25 506.189 301.404 505.533 303.487 504.864C314.756 501.233 326.053 500.645 337.039 505.512C353.058 512.598 369.009 519.856 384.77 527.517C391.809 530.94 398.753 532.886 406.647 532.935C434.925 533.102 463.198 533.845 491.472 534.367C498.054 534.485 504.656 534.934 511.223 534.62C577.353 531.434 643.352 533.004 709.208 540.041C714.892 540.649 720.549 541.563 726.245 542.028C729.182 542.273 733.563 543.864 734.234 539.421C734.93 534.848 730.526 535.191 727.461 534.783C726.833 534.697 726.197 534.644 725.569 534.554C716.824 533.286 708.083 532.013 699.355 530.74C698.114 524.205 697.005 518.355 695.718 511.574C737.176 513.259 777.056 508.829 816.686 500.454C817.874 504.048 818.876 506.434 819.452 508.931C826.587 539.997 834.008 571.026 836.027 603.03C836.922 617.32 838.225 631.615 835.133 645.901C832.386 658.577 825.514 667.605 814.428 673.573C804.681 678.819 794.295 681.345 783.352 681.834C755.528 683.066 729.282 675.805 703.333 666.568C655.074 649.394 609.152 625.936 560.225 610.622C546.667 606.375 532.854 602.977 519.157 599.199C518.851 599.113 518.533 599.081 518.223 599.015C502.391 595.625 486.443 592.721 470.759 588.739C442.425 581.551 414.283 573.563 385.986 566.208C366.847 561.231 349.759 552.59 334.905 539.079C328.759 533.49 321.95 528.59 315.074 523.948C309.445 520.15 303.006 518.098 296.106 518.485C279.952 519.391 263.814 520.133 248.117 524.988C238.716 527.901 229.101 530.149 219.502 532.319C213.511 533.673 207.374 534.338 201.308 535.313ZM692.112 529.802C689.302 529.928 688.062 530.104 686.842 530.022C633.244 526.497 579.671 524.568 525.898 526.383C487.521 527.676 449.04 525.861 410.61 525.367C409.458 525.351 408.317 524.576 406.775 524.009C407.82 512.766 408.599 501.722 409.927 490.748C411.763 475.507 411.485 464.419 407.959 457.435C401.683 463.925 404.747 471.742 403.853 478.534C402.855 486.126 402.172 493.763 401.246 502.395C362.232 491.719 324.614 481.422 286.359 470.95C287.114 468.086 287.599 465.594 288.422 463.228C300.903 427.332 313.126 391.338 326.049 355.609C335.215 330.259 345.545 305.354 354.97 280.101C362.86 258.969 376.625 245.16 398.745 241.162C417.793 237.719 436.845 234.288 455.952 231.253C465.273 229.776 474.729 229.209 484.472 228.193C485.645 232.583 486.237 236.12 487.525 239.367C491.333 248.978 494.163 259.324 499.644 267.85C512.857 288.391 535.72 297.843 560.126 283.202C570.349 277.07 579.925 270.119 587.636 260.838C595.63 251.218 603.293 241.309 611.47 231.057C650.785 236.968 688.09 250.174 723.117 269.898C744.39 281.88 759.69 300.001 769.225 322.932C773.586 333.4 777.672 344.048 781.019 354.895C789.931 383.783 798.337 412.833 807.007 441.798C812.921 461.567 813.052 461.714 795.094 471.88C764.932 488.945 732.871 490.887 699.911 483.36C685.709 480.117 685.804 479.693 680.875 465.647C679.158 460.747 677.68 455.734 675.569 451.009C674.873 449.443 672.564 448.627 670.99 447.464C670.374 449.423 669.289 451.377 669.273 453.343C669.265 455.187 670.421 457.027 671.002 458.887C677.214 478.73 683.451 498.569 689.572 518.444C690.598 521.777 691.119 525.282 692.112 529.802ZM279.034 469.253C267.467 470.991 267.566 471.012 265.416 481.439C263.845 489.039 261.973 496.57 260.232 504.137C253.252 506.226 246.276 508.311 239.297 510.404C222.518 515.43 205.872 520.843 190.401 529.39C187.126 531.205 182.444 532.462 183.06 537.255C183.771 542.767 188.792 542.477 192.878 542.718C206.066 543.497 218.734 540.249 231.438 537.312C236.005 536.26 240.584 535.272 247.203 533.796C244.73 536.774 243.736 538.185 242.532 539.381C236.172 545.708 229.86 552.096 223.286 558.187C221.831 559.533 219.398 560.394 217.411 560.411C201.837 560.533 186.26 560.296 170.686 560.415C166.54 560.447 164.29 558.697 162.788 554.907C158.352 543.746 153.351 532.804 149.273 521.512C139.006 493.057 127.244 465.316 114.723 437.824C98.1878 401.525 83.1468 364.503 67.291 327.873C62.9106 317.751 58.0613 307.834 53.1284 297.982C50.1075 291.948 41.4819 289.525 36.0323 292.923C33.0631 294.779 33.1705 297.549 34.4583 300.629C38.2186 309.613 41.8079 318.677 45.5085 327.689C78.3133 407.583 111.126 487.468 143.923 567.366C144.893 569.728 145.684 572.164 147.055 575.921C142.981 576.068 139.694 576.321 136.41 576.28C94.7853 575.688 53.1642 575.052 11.5391 574.44C8.99518 574.403 6.3598 574.069 3.95099 574.656C2.45245 575.024 1.30377 576.876 0 578.059C1.20441 579.258 2.25775 581.18 3.65692 581.502C6.40356 582.13 9.33704 581.926 12.199 581.971C54.464 582.648 96.725 583.325 138.99 583.978C222.888 585.275 306.782 586.548 390.684 587.841C404.66 588.058 418.683 589.11 432.6 588.27C439.909 587.825 446.035 589.485 452.355 593.712C449.103 593.712 445.852 593.753 442.592 593.704C364.096 592.57 285.596 591.378 207.096 590.293C142.579 589.404 78.059 588.617 13.5385 587.87C10.0167 587.833 6.487 588.588 2.9613 588.976C2.79437 589.734 2.62738 590.493 2.46045 591.248C3.97485 592.476 5.33429 594.316 7.04749 594.785C9.4364 595.442 12.0876 595.103 14.6316 595.14C123.647 596.629 232.662 598.11 341.674 599.603C382.993 600.17 424.312 600.818 465.631 601.251C469.96 601.296 474.288 599.974 478.641 599.578C480.795 599.387 483.061 599.603 485.179 600.08C509.987 605.665 534.965 610.589 559.498 617.259C573.824 621.155 587.449 627.796 601.338 633.341C637.434 647.733 673.303 662.758 709.654 676.449C733.908 685.583 759.149 690.805 785.312 689.177C797.213 688.439 808.509 685.567 818.995 679.627C830.705 672.99 837.705 663.089 841.954 649.867C847.308 633.202 843.719 616.953 842.657 600.525C840.507 567.199 832.438 534.975 824.933 502.661C824.643 501.429 824.667 500.123 824.572 499.071C825.2 498.361 825.526 497.7 826.042 497.459C837.999 491.907 838.325 491.434 834.103 478.281C832.227 472.423 829.815 466.728 827.362 461.086C826.484 459.075 825.053 456.235 823.407 455.844C817.115 454.363 816.439 449.219 814.972 444.303C805.401 412.213 796.282 379.96 785.924 348.136C781.027 333.074 774.552 318.392 767.313 304.334C757.05 284.417 740.535 270.38 721.316 260.173C687.553 242.239 651.64 230.433 614.419 222.637C609.176 221.539 606.831 224.57 604.271 227.965C598.635 235.442 593.046 242.957 587.378 250.414C579.257 261.103 569.085 269.331 557.896 276.409C538.483 288.676 520.886 282.647 507.979 266.781C498.972 255.705 495.045 242.263 492.553 228.332C491.209 220.834 490.339 219.769 483.434 220.491C455.006 223.461 426.701 226.916 398.67 233.154C373.131 238.841 357.251 254.139 348.26 278.531C333.653 318.151 318.643 357.612 304.151 397.278C295.458 421.074 287.428 445.119 279.034 469.253Z" fill="white"/>
<path fill-rule="evenodd" clip-rule="evenodd" d="M477.079 35.7161C478.021 42.3209 479.913 47.6651 482.409 51.969C482.449 49.5702 482.544 47.1592 482.672 44.7523C478.693 36.6952 476.662 27.6508 478.168 21.1725C476.797 25.607 476.336 30.531 477.079 35.7161ZM511.422 66.6839C519.332 65.8394 531.638 60.944 534.158 53.9476C535.077 51.4101 534.627 48.7462 532.878 46.021C534.111 49.9659 533.097 55.8568 528.168 59.455C519.324 65.9047 503.428 66.6431 494.219 59.663C492.684 58.5044 491.214 57.0807 489.803 55.506C489.814 57.2438 489.866 58.9817 489.918 60.7237C496.468 65.8517 504.402 67.4386 511.422 66.6839ZM522.524 5.75592C518.159 2.26791 512.762 0.733997 506.43 1.10524C515.206 1.46424 524.794 6.15979 531.173 19.6304C529.766 14.6942 527.095 9.40711 522.524 5.75592ZM478.299 20.6707C478.347 20.4627 478.414 20.2628 478.474 20.0588C478.403 20.2546 478.363 20.4708 478.299 20.6707ZM494.696 2.52492C506.489 -1.52199 516.065 -0.697923 523.136 4.95225C528.395 9.15418 531.281 15.2939 532.584 20.8013C532.894 20.838 533.204 20.8788 533.514 20.9155C543.221 17.199 553.226 18.631 561.462 23.3469C565.159 25.4683 567.21 28.1526 570.882 30.3311C573.593 32.0486 576.308 33.762 579.019 35.4836C587.199 42.5452 594.048 50.5656 594.1 61.6375C594.116 64.8604 593.046 72.8807 591.441 80.587C592.82 80.3585 593.639 80.281 594.362 80.0363C605.909 76.1117 614.706 82.7818 614.26 95.2611C613.931 104.546 609.59 111.71 601.573 115.577C596.89 117.841 595.809 120.477 596.218 125.352C598.802 156.222 603.691 186.716 609.836 217.027C610.548 220.515 609.936 224.285 609.936 228.185C603.683 227.965 603.922 223.983 603.214 220.617C596.592 189.07 591.524 157.278 588.738 125.115C587.867 115.059 587.97 114.757 597.391 109.752C604.637 105.901 608.839 97.6272 606.259 91.3039C605.377 89.1499 603.222 86.486 601.298 86.1433C599.585 85.8374 597.2 88.2076 595.467 89.8027C594.354 90.8307 594.187 92.948 593.062 93.9434C591.345 95.4651 589.167 96.436 587.183 97.6395C586.977 97.2152 586.742 96.7991 586.5 96.3789C586.353 96.6237 586.202 96.8888 586.051 97.0806C585.82 96.0974 585.554 95.1469 585.307 94.18C584.954 93.4661 584.647 92.744 584.532 91.9934C584.461 91.5161 584.401 91.0347 584.329 90.5533C576.253 62.7512 559.546 42.4433 532.576 30.2046C532.334 30.3964 531.495 31.3143 530.466 31.8201C529.122 32.481 527.556 32.6605 526.213 33.3173C522.353 35.2102 519.678 39.0328 521.92 42.3984C524.909 46.8696 528.633 47.0858 530.402 42.941C530.494 42.7329 530.998 43.0837 531.308 43.1694L531.666 42.8186C535.279 46.7309 536.428 50.5901 535.092 54.3025C532.306 62.021 519.38 66.8593 511.521 67.6956C510.396 67.8139 509.248 67.8792 508.083 67.8792C501.998 67.8792 495.53 66.1454 489.962 62.0332C490.081 65.1337 490.248 68.2301 490.522 71.3101C492.911 97.9536 496.317 124.438 508.031 148.895C513.429 160.158 519.082 162.667 531.102 158.865C539.938 156.067 548.369 152.367 555.508 146.06C557.555 144.252 560.118 141.217 562.69 144.709C565.035 147.891 562.034 150.2 559.808 151.885C555.996 154.769 552.093 157.658 547.884 159.844C537.342 165.327 526.356 169.305 514.332 167.028C513.235 170.321 512.312 172.74 511.613 175.224C507.411 190.249 503.345 205.315 499.028 220.303C497.955 224.024 498.201 228.927 490.669 230.865C491.241 226.402 491.301 223.261 492.088 220.32C496.453 203.997 501.091 187.748 505.412 171.406C506.354 167.844 508.377 164.369 505.841 160.252C495.852 143.991 491.086 125.784 487.684 107.104C484.472 89.5049 482.294 71.7997 482.409 53.9476C479.416 49.3132 477.166 43.3693 476.097 35.867C473.903 20.4831 481.376 7.08177 494.696 2.52492Z" fill="white"/>
<path fill-rule="evenodd" clip-rule="evenodd" d="M515.773 71.251L509.699 95.9119L518.559 96.8216L515.773 71.251Z" fill="white"/>
<path fill-rule="evenodd" clip-rule="evenodd" d="M515.757 71.4942L518.508 96.771L509.751 95.8776L515.757 71.4942ZM518.559 96.8649C518.567 96.8649 518.579 96.8608 518.587 96.8526C518.595 96.8445 518.599 96.8282 518.599 96.8159L515.817 71.2454C515.813 71.229 515.797 71.2127 515.777 71.2086C515.757 71.2086 515.737 71.2209 515.733 71.2413L509.66 95.9021C509.656 95.9143 509.66 95.9266 509.664 95.9347C509.672 95.947 509.683 95.9551 509.695 95.9551L518.551 96.8649H518.559Z" fill="white"/>
<path fill-rule="evenodd" clip-rule="evenodd" d="M525.378 54.249C525.378 54.249 524.106 61.6982 525.537 63.4769C531.853 62.506 545.825 64.2888 554.609 72.554C552.733 61.633 525.378 54.249 525.378 54.249Z" fill="white"/>
<path fill-rule="evenodd" clip-rule="evenodd" d="M525.413 54.3047C526.013 54.4679 532.58 56.3037 539.273 59.343C543.379 61.2073 546.726 63.1491 549.226 65.1196C552.291 67.5346 554.08 69.9987 554.549 72.4341C549.632 67.8569 543.471 65.6009 539.158 64.5117C535.39 63.5612 529.841 62.7779 525.552 63.4306C524.232 61.7254 525.31 54.933 525.413 54.3047ZM554.612 72.5973C554.616 72.5973 554.624 72.5932 554.632 72.5892C554.644 72.581 554.656 72.5688 554.652 72.5484C554.223 70.0435 552.414 67.5224 549.278 65.0502C546.774 63.0757 543.419 61.1298 539.309 59.2654C532.313 56.0875 525.457 54.2231 525.389 54.2109C525.377 54.2068 525.365 54.2068 525.357 54.215C525.345 54.2191 525.337 54.2272 525.337 54.2395C525.286 54.5495 524.077 61.7295 525.5 63.5041C525.512 63.5163 525.528 63.5245 525.54 63.5204C529.821 62.8636 535.37 63.6428 539.138 64.5933C543.467 65.6866 549.664 67.963 554.581 72.5851C554.589 72.5932 554.601 72.5973 554.612 72.5973Z" fill="white"/>
<path fill-rule="evenodd" clip-rule="evenodd" d="M509.067 53.0751C509.067 53.0751 510.188 60.5488 508.721 62.2989C501.848 62.2459 491.088 65.2566 483.759 69.5442C486.056 62.0338 509.067 53.0751 509.067 53.0751Z" fill="white"/>
<path fill-rule="evenodd" clip-rule="evenodd" d="M508.531 62.2553C501.48 62.2553 490.93 65.3272 483.831 69.4557C485.103 65.6168 491.841 61.4026 497.294 58.5347C502.97 55.5444 508.46 53.3618 509.032 53.1374C509.127 53.8106 510.057 60.5949 508.702 62.2594C508.646 62.2553 508.587 62.2553 508.531 62.2553ZM483.76 69.5903C483.767 69.5903 483.771 69.5903 483.779 69.5863C490.867 65.4373 501.46 62.3409 508.531 62.3409H508.722C508.734 62.3409 508.746 62.3409 508.754 62.3328C509.37 61.5944 509.616 59.8116 509.485 57.0334C509.39 54.9651 509.111 53.0926 509.107 53.0722C509.107 53.0599 509.1 53.0477 509.088 53.0395C509.076 53.0314 509.064 53.0314 509.052 53.0354C508.992 53.0599 503.229 55.3159 497.254 58.4572C491.737 61.3578 484.908 65.6372 483.72 69.5332C483.712 69.5495 483.72 69.5699 483.732 69.5822C483.74 69.5863 483.748 69.5903 483.76 69.5903Z" fill="white"/>
<path fill-rule="evenodd" clip-rule="evenodd" d="M531.666 93.8305C527.307 100.483 523.764 104.186 517.859 104.819C511.953 105.458 507.817 101.969 507.817 101.969C507.817 101.969 512.543 114.922 518.255 117.326C530.066 122.314 529.509 107.35 531.666 93.8305Z" fill="white"/>
<path fill-rule="evenodd" clip-rule="evenodd" d="M548.703 83.2306L549.971 82.0924C549.769 81.8517 544.903 76.2546 536.6 75.8222C526.345 75.2959 521.829 80.175 521.642 80.3831L522.882 81.5539C522.922 81.5131 527.108 77.0542 536.516 77.5478C544.081 77.9435 548.66 83.1776 548.703 83.2306Z" fill="white"/>
<path fill-rule="evenodd" clip-rule="evenodd" d="M486.378 81.5057C486.418 81.4527 490.468 76.3247 497.25 76.0351C501.678 75.8474 504.79 76.9856 506.622 77.9769C508.606 79.0458 509.564 80.1799 509.572 80.1921L510.86 79.0743C510.685 78.8663 506.503 73.9097 497.182 74.3054C489.606 74.6317 485.238 80.1962 485.055 80.4328L486.378 81.5057Z" fill="white"/>
</svg>
